<?xml version="1.0" encoding="utf-8"?>
<!-- Generator: Adobe Illustrator 18.1.1, SVG Export Plug-In . SVG Version: 6.00 Build 0)  -->
<svg version="1.1" id="Layer_1" xmlns="http://www.w3.org/2000/svg" xmlns:xlink="http://www.w3.org/1999/xlink" x="0px" y="0px"
	 viewBox="0 0 112 112" enable-background="new 0 0 112 112" xml:space="preserve">
<g>
	<path d="M86.6,98.7c-1.8-0.4-3.4,1.7-5.2,3.3c-4.1,3.6-8.8,4.4-16.3,5.8c-3.1,0.5-6.2,0.8-9.2,0.8c-10.7,0-21.1-3.3-30-9.5
		c-11.5-8-19.1-20.1-21.6-33.9c-1.1-6-1.1-12.1-0.1-18l2.8,5.2c1.3,2.5,4.1,3.8,6.8,3.3l0.2,0l0.9,1.2c1.4,1.8,3.5,2.9,5.7,3
		l8.1,0.2c0.4,0,0.8,0.1,1.1,0.4l0.5,0.4c0.8,0.5,1.6,0.9,2.6,1l-0.8,5.2c0,0.2,0,0.4,0,0.6l0.8,4.6c0.4,2,1.6,3.7,3.4,4.6l6.3,3.2
		c0.8,0.4,1.4,1.2,1.6,2.1l1.1,6.2c0.5,2.7,1.5,5.3,3,7.6l3.7,5.7c0.7,1.2,2,1.8,3.4,1.8c0.2,0,0.4,0,0.6,0c1.1-0.2,2-0.7,2.7-1.6
		c0.6-0.9,0.9-2,0.7-3l-1.1-6l2.7-2.6c1.3-1.2,2.1-2.9,2.2-4.6l0.4-4.7c0-0.2,0.2-0.4,0.5-0.5l1.2-0.2c1.9-0.3,3.3-1.9,3.4-3.8
		l0.3-4.7c0.2-2.6-1-5.1-3.1-6.6l-1-0.7c-1.6-1.1-3.6-1.6-5.5-1.2l-0.8,0.1c-0.5,0.1-1,0-1.5-0.3l-6.5-4.5c-2.4-1.7-5.4-2.4-8.3-1.8
		L34,58.1c-0.5,0.1-1,0-1.5-0.3L32,57.4c-0.9-0.6-1.9-1-3-1l-1.5,0l-0.2-1c-0.4-2.1,1-4.1,3.1-4.5l2-0.3l0.3,2
		c0.2,0.9,0.9,1.4,1.7,1.4c0.1,0,0.2,0,0.3,0c1-0.2,1.6-1.1,1.4-2L35.7,49l11.8-18.4c0,0,0,0,0.1,0l2.8-0.5c1.3-0.2,2.4-1.2,2.8-2.4
		l0.4-1.1c0.6-1.8-0.3-3.7-2-4.5l-4.6-2l5.3-2.3c0.7-0.3,1.2-1.1,1-1.9l-0.4-2.3c-0.1-0.5-0.3-0.9-0.7-1.1c-0.4-0.3-0.9-0.4-1.3-0.3
		l-13.4,2.4c-0.2,0-0.4,0.1-0.5,0.2l-6.5,3.6l-0.1-0.7c-0.1-0.5-0.3-0.9-0.7-1.1C29,16.1,28.5,16,28.1,16l-2.2,0.4
		c-2.4,0.4-4.5,1.8-6,3.8l-1,1.4c0,0,0,0-0.1,0c0,0-0.1,0-0.1,0l-1.5-1c3.6-4.4,7.2-6.9,9.9-8.5c7.8-4.4,16.1-4.9,16.3-8
		c0,0,0-0.9-0.5-1.5C40.4,0,29.9,6,25.3,9.2c-8.8,6-13.8,12.8-15.1,14.7C1.6,36.1-1.7,51,0.9,65.7c2.6,14.7,10.8,27.6,23,36.1
		c9.5,6.7,20.6,10.1,32,10.1c3.3,0,6.6-0.3,9.8-0.9c8.7-1.5,23.5-5.7,23.3-9.9C89,100,87.7,98.9,86.6,98.7z M36.7,61.2l6.5-1.2
		c2-0.4,4,0.1,5.7,1.3l6.5,4.5c1.2,0.8,2.7,1.2,4.1,0.9l0.8-0.1c1-0.2,2,0,2.9,0.6l1,0.7c1.1,0.8,1.7,2.1,1.6,3.4L65.4,76
		c0,0.3-0.2,0.5-0.5,0.6l-1.2,0.2c-1.7,0.3-3.1,1.7-3.4,3.4c0,0,0,0.1,0,0.1L60,85.1c-0.1,0.9-0.5,1.8-1.2,2.4l-3.4,3.2
		c-0.4,0.4-0.6,1-0.5,1.6l1.2,6.9c0,0.2,0,0.3-0.1,0.4c-0.1,0.1-0.2,0.2-0.4,0.2c-0.2,0-0.4-0.1-0.5-0.2l-3.7-5.7
		c-1.2-1.9-2.1-4-2.5-6.3l-1.1-6.2c-0.4-2-1.6-3.7-3.4-4.6l-6.3-3.2c-0.8-0.4-1.4-1.2-1.6-2.1L35.8,67L36.7,61.2z M13,25.9
		c0.6-0.9,1.3-1.8,1.9-2.6l1.8,1.2c0.8,0.6,1.8,0.8,2.7,0.6c1-0.2,1.8-0.7,2.3-1.5l1-1.4c0.9-1.3,2.2-2.1,3.7-2.4l0.5-0.1l0.6,3.2
		c0.2,0.9,0.9,1.4,1.7,1.4c0.1,0,0.2,0,0.3,0c1-0.2,1.6-1.1,1.4-2l-0.1-0.6l7.3-4l8.4-1.5L45,17c-1.2,0.5-2,1.7-2,3.1
		c0,1.3,0.8,2.5,2,3l5,2.2c0.1,0,0.1,0.1,0.1,0.1l-0.4,1.1c0,0,0,0.1-0.1,0.1l-2.8,0.5c-1,0.2-1.8,0.7-2.3,1.5c0,0,0,0,0,0.1
		L32.8,46.9l-3,0.5c-4,0.7-6.7,4.5-6,8.5l0.1,0.3l-3.1-0.1c-1.2,0-2.3-0.6-3-1.6l-1.5-2c-0.4-0.5-1.1-0.8-1.7-0.7l-1.3,0.2
		c-1.3,0.2-2.5-0.4-3.1-1.5l-4.7-8.8C7,36.3,9.5,30.8,13,25.9z"/>
	<path d="M98,18.8c-1.4,0-2.5,1.1-2.5,2.5s1.1,2.5,2.5,2.5h11.5c1.4,0,2.5-1.1,2.5-2.5s-1.1-2.5-2.5-2.5H98z"/>
	<path d="M107.4,16.8c1.4,0,2.5-1.1,2.5-2.5V2.5c0-1.4-1.1-2.5-2.5-2.5s-2.5,1.1-2.5,2.5v11.8C104.9,15.7,106,16.8,107.4,16.8z"/>
	<path d="M81.7,7.5h18.7c1.4,0,2.5-1.1,2.5-2.5s-1.1-2.5-2.5-2.5H81.7c-1.4,0-2.5,1.1-2.5,2.5S80.3,7.5,81.7,7.5z"/>
	<path d="M93.5,30.6V11.9c0-1.4-1.1-2.5-2.5-2.5s-2.5,1.1-2.5,2.5v18.7c0,1.4,1.1,2.5,2.5,2.5S93.5,32,93.5,30.6z"/>
	<path d="M86.9,21.3c0-1.4-1.1-2.5-2.5-2.5H65.7c-1.4,0-2.5,1.1-2.5,2.5s1.1,2.5,2.5,2.5h18.7C85.8,23.8,86.9,22.6,86.9,21.3z"/>
	<path d="M75,16.8c1.4,0,2.5-1.1,2.5-2.5V2.5C77.5,1.1,76.4,0,75,0s-2.5,1.1-2.5,2.5v11.8C72.5,15.7,73.7,16.8,75,16.8z"/>
	<path d="M49.4,7.5H68c1.4,0,2.5-1.1,2.5-2.5S69.4,2.5,68,2.5H49.4c-1.4,0-2.5,1.1-2.5,2.5S48,7.5,49.4,7.5z"/>
	<path d="M61.2,30.6V11.9c0-1.4-1.1-2.5-2.5-2.5s-2.5,1.1-2.5,2.5v18.7c0,1.4,1.1,2.5,2.5,2.5S61.2,32,61.2,30.6z"/>
	<path d="M109.5,51.4H98c-1.4,0-2.5,1.1-2.5,2.5s1.1,2.5,2.5,2.5h11.5c1.4,0,2.5-1.1,2.5-2.5S110.9,51.4,109.5,51.4z"/>
	<path d="M107.4,25.8c-1.4,0-2.5,1.1-2.5,2.5v18.7c0,1.4,1.1,2.5,2.5,2.5s2.5-1.1,2.5-2.5V28.3C109.9,26.9,108.8,25.8,107.4,25.8z"
		/>
	<path d="M102.9,37.6c0-1.4-1.1-2.5-2.5-2.5H81.7c-1.4,0-2.5,1.1-2.5,2.5s1.1,2.5,2.5,2.5h18.7C101.8,40.1,102.9,39,102.9,37.6z"/>
	<path d="M91,42c-1.4,0-2.5,1.1-2.5,2.5v18.7c0,1.4,1.1,2.5,2.5,2.5s2.5-1.1,2.5-2.5V44.5C93.5,43.1,92.4,42,91,42z"/>
	<path d="M65.7,56.4h18.7c1.4,0,2.5-1.1,2.5-2.5s-1.1-2.5-2.5-2.5H65.7c-1.4,0-2.5,1.1-2.5,2.5S64.3,56.4,65.7,56.4z"/>
	<path d="M72.5,28.3v18.7c0,1.4,1.1,2.5,2.5,2.5s2.5-1.1,2.5-2.5V28.3c0-1.4-1.1-2.5-2.5-2.5S72.5,26.9,72.5,28.3z"/>
	<path d="M46.9,37.6c0,1.4,1.1,2.5,2.5,2.5H68c1.4,0,2.5-1.1,2.5-2.5s-1.1-2.5-2.5-2.5H49.4C48,35.1,46.9,36.2,46.9,37.6z"/>
	<path d="M109.5,84.2H98c-1.4,0-2.5,1.1-2.5,2.5s1.1,2.5,2.5,2.5h11.5c1.4,0,2.5-1.1,2.5-2.5S110.9,84.2,109.5,84.2z"/>
	<path d="M109.9,79.8V61.1c0-1.4-1.1-2.5-2.5-2.5s-2.5,1.1-2.5,2.5v18.7c0,1.4,1.1,2.5,2.5,2.5S109.9,81.2,109.9,79.8z"/>
	<path d="M81.7,72.9h18.7c1.4,0,2.5-1.1,2.5-2.5s-1.1-2.5-2.5-2.5H81.7c-1.4,0-2.5,1.1-2.5,2.5S80.3,72.9,81.7,72.9z"/>
	<path d="M91,74.9c-1.4,0-2.5,1.1-2.5,2.5V96c0,1.4,1.1,2.5,2.5,2.5s2.5-1.1,2.5-2.5V77.4C93.5,76,92.4,74.9,91,74.9z"/>
	<path d="M35.4,27.2c0.4,0,0.8-0.1,1.1-0.4l2.8-2.2c0.8-0.6,0.9-1.7,0.3-2.5c-0.6-0.8-1.7-0.9-2.5-0.3l-2.8,2.2
		c-0.8,0.6-0.9,1.7-0.3,2.5C34.4,27,34.9,27.2,35.4,27.2z"/>
</g>
</svg>
