<svg xmlns="http://www.w3.org/2000/svg" viewBox="0 0 106.71 122.56"><defs><style>.cls-1{fill:#fff;}</style></defs><g id="Capa_2" data-name="Capa 2"><g id="Capa_2-2" data-name="Capa 2"><path class="cls-1" d="M98.82,59.69l1-.37c-.09-.24-.19-.48-.28-.71l-.18.29C99.14,59.16,99,59.42,98.82,59.69Z"/><path class="cls-1" d="M100.5,63.21a4,4,0,0,0,.16-1l-.62.24C100.2,62.68,100.35,62.94,100.5,63.21Z"/><path class="cls-1" d="M97.06,56.86c.07-.11.15-.22.21-.33l-.45-.07C96.9,56.59,97,56.72,97.06,56.86Z"/><path class="cls-1" d="M101.3,86.78a4.36,4.36,0,0,0,.76-.6,5.23,5.23,0,0,0,1.56-4.75c-.32-1.7-.71-3.37-1.14-5,0,.21,0,.43,0,.64A40.24,40.24,0,0,1,101.3,86.78Z"/><path class="cls-1" d="M57.68,43.7A20.36,20.36,0,0,0,53.51,46,24.13,24.13,0,0,0,57.68,43.7Z"/><path class="cls-1" d="M84.06,64.55h0c.1.24.21.47.31.71L85,65Z"/><path class="cls-1" d="M12.05,75l.49.31.65.41c0-.57.06-1.14.1-1.71L11,72.5,8.86,71.13a3.89,3.89,0,0,1-1.71-2.44,3.49,3.49,0,0,1,0-1.51L4.57,65.44a6.42,6.42,0,0,0-.35,3.88,6.87,6.87,0,0,0,3,4.34L9.35,75l2.16,1.38c0-.58,0-1.17.05-1.75Z"/><path class="cls-1" d="M102.11,66.42a7.17,7.17,0,0,1-.72.74c.21.92.39,1.85.54,2.78-.05-.13-.11-.25-.16-.39a40.35,40.35,0,0,1,.71,6.9c.43,1.61.82,3.28,1.14,5a5.23,5.23,0,0,1-1.56,4.75,4.36,4.36,0,0,1-.76.6c-.16.65-.34,1.3-.53,1.94l.23-.08c-.16.58-.32,1.16-.5,1.74a8.29,8.29,0,0,0,6.07-9.49A66.23,66.23,0,0,0,102.11,66.42Z"/><path class="cls-1" d="M100.94,67.53a6.35,6.35,0,0,1-1.31.77,61.45,61.45,0,0,1,2.85,8.15,40.35,40.35,0,0,0-.71-6.9c-.25-.64-.51-1.28-.77-1.88Z"/><path class="cls-1" d="M97.31,87.51c-11.45-2.63-27.53-1.29-43,3.59a8,8,0,0,1-6.15-.53A7.67,7.67,0,0,1,44.32,86c-.68-2.17-1.11-4-1.5-5.67A22.68,22.68,0,0,0,40.69,74c-1-.48-2-1-3.07-1.42,3.35,3,3.06,6.82,5.27,13.9a9.38,9.38,0,0,0,11.84,6.07c1.63-.51,3.32-1,5.05-1.45l.56-.14.56-.14a94.59,94.59,0,0,1,27.62-3l.49,0,.51,0A48.56,48.56,0,0,1,97,89l.55.09.53.05h0a4.47,4.47,0,0,0,.52,0A6.57,6.57,0,0,0,99.86,89l.56-.14.35-.13c.19-.64.37-1.29.53-1.94A5,5,0,0,1,97.31,87.51Z"/><path class="cls-1" d="M14.18,76.31c.17.1.33.21.5.3a16.35,16.35,0,0,0,3.86,1.94c1.95.35,1,.47,3.07-1.61,2.83-2.83,3.73-5.91,7.71-7.63l0,0c-.66-.23-1.33-.44-2-.66a15.33,15.33,0,0,0-4.54,4.5c-.15.2-.3.41-.46.61l.11.07-1.67,2.5L20.4,76c-.49.5-.81.87-1,1.14l-.55-.11c-.76-.13-3.28-1.67-5.52-3.09,0,.57-.08,1.14-.1,1.71l.5.32Z"/><path class="cls-1" d="M64.19,40.79c.08-1-1.24-2-2.09-1-.07.09-.16.16-.23.25.37-.06.74-.11,1.12-.15A1.22,1.22,0,0,1,64.19,40.79Z"/><path class="cls-1" d="M31.73,45.5C30.29,44.81,29,47,30.47,47.66a29.39,29.39,0,0,0,10.27,2.75c-.24-.9-.45-1.74-.64-2.53A26.14,26.14,0,0,1,31.73,45.5Z"/><path class="cls-1" d="M51.51,79.1a1.08,1.08,0,0,0,.16.53,1.26,1.26,0,0,0,1.71.45c.42-.31.85-.59,1.3-.86a9.83,9.83,0,0,1-1.21.08A10.68,10.68,0,0,1,51.51,79.1Z"/><path class="cls-1" d="M55.55,76a7.71,7.71,0,0,0,2.28-1,21.6,21.6,0,0,0-2.68,1.11Z"/><path class="cls-1" d="M60.41,76.81A20.44,20.44,0,0,1,63,76.37a1.29,1.29,0,0,0,1.25-1.25A1.26,1.26,0,0,0,63,73.87h-.1l0,0A10.73,10.73,0,0,1,60.41,76.81Z"/><path class="cls-1" d="M4.77,64.47l-.51.76.31.21A5.71,5.71,0,0,1,5,64.59Z"/><path class="cls-1" d="M14.14,68.24l-4.4-2.95c-.43,0-.85,0-1.27,0h-.3L7.64,66a3.39,3.39,0,0,0-.48,1.15l6.4,4.28C13.71,70.37,13.9,69.3,14.14,68.24Z"/><path class="cls-1" d="M13.56,71.46,20.4,76c.05-.05.09-.1.15-.15a19.66,19.66,0,0,0,1.81-2.15l-8.22-5.5C13.9,69.3,13.71,70.37,13.56,71.46Z"/><path class="cls-1" d="M7.64,66l.53-.78A8.09,8.09,0,0,1,5,64.59a5.71,5.71,0,0,0-.44.85l2.59,1.74A3.39,3.39,0,0,1,7.64,66Z"/><path class="cls-1" d="M20.4,76l.4.27,1.67-2.5-.11-.07a19.66,19.66,0,0,1-1.81,2.15C20.49,75.94,20.45,76,20.4,76Z"/><path class="cls-1" d="M97.14,63.55l.1.07a.41.41,0,0,1,0-.09Z"/><path class="cls-1" d="M6.15,62.89,6.74,62a5.12,5.12,0,0,1-2.85-2.12,5.26,5.26,0,0,1-.47-5A61.52,61.52,0,0,1,10.92,42L9.35,41l-1-.64A66.52,66.52,0,0,0,.66,53.76a8.24,8.24,0,0,0,.73,7.81,8.35,8.35,0,0,0,3.38,2.9l1.16-1.73Z"/><path class="cls-1" d="M100.5,63.21c.54,1,1.08,2,1.61,3.21a7.18,7.18,0,0,0,1-1.48,6.54,6.54,0,0,0,.5-3.87l-2.9,1.12A4,4,0,0,1,100.5,63.21Z"/><path class="cls-1" d="M15.77,62.81a55.19,55.19,0,0,0-5.53-.51c-.53.73-1.06,1.48-1.59,2.26l1.09.73a49.06,49.06,0,0,1,5.06.42C15.09,64.73,15.41,63.76,15.77,62.81Z"/><path class="cls-1" d="M99.5,58.61c.09.23.19.47.28.71l2.8-1.09q-.47-1.15-.93-2.25a6.61,6.61,0,0,1-.85.3A14,14,0,0,1,99.5,58.61Z"/><path class="cls-1" d="M73.22,60.6a19.46,19.46,0,0,1,9.1.58A11.47,11.47,0,0,0,79.12,58a3.5,3.5,0,0,0-2.4-.57c-9.51,1.09-11.1,4.38-13.75,9.84-.73,1.51-1.57,3.23-2.7,5.19A7.64,7.64,0,0,1,57.83,75a22.88,22.88,0,0,1,5.06-1.12c1.17-2,2-3.79,2.78-5.35,1.94-4,3-6.1,6.77-7.28A1.09,1.09,0,0,1,73.22,60.6Z"/><path class="cls-1" d="M56.32,78.93a10.73,10.73,0,0,0,4.09-2.12,20.34,20.34,0,0,0-5.73,2.41A11.75,11.75,0,0,0,56.32,78.93Z"/><path class="cls-1" d="M52.11,77.92a22.35,22.35,0,0,1,3-1.81,8,8,0,0,1-5.72-.91C38.22,68.68,26.16,64.29,15.77,62.81c-.36.95-.68,1.92-1,2.9a74.71,74.71,0,0,1,12.56,2.92,12.26,12.26,0,0,1,1.74-.86,3.4,3.4,0,0,1,1.26-.24,3.57,3.57,0,0,1,1.2.21c5.21,1.82,7.69,3.78,9.13,6.24,2.59,1.24,5,2.53,7.23,3.81a11,11,0,0,0,3.59,1.31A1.37,1.37,0,0,1,52.11,77.92Z"/><path class="cls-1" d="M98.13,65.68l-2.37.87c-2.62,1-7.46,2.75-8.6,2.75h-.6c-.16-.31-.4-.75-.77-1.34l-.45.17-1.08-2.8.12,0c-.1-.24-.21-.47-.31-.71h0a17,17,0,0,0-4-1.4,23,23,0,0,1,1.31,2.63,25.76,25.76,0,0,0,1.82,3.58c.39.62.61,1,.77,1.36a2.35,2.35,0,0,0,2.54,1.55l.53,0c1.54.07,4.88-1.11,9.81-2.93l2.34-.85c.17-.06.33-.14.49-.21-.43-1-.86-1.9-1.28-2.72Z"/><path class="cls-1" d="M99.5,58.61a14,14,0,0,0,1.3-2.33,8,8,0,0,1-2.13.35C99,57.28,99.22,57.94,99.5,58.61Z"/><path class="cls-1" d="M100.33,63.67a1.29,1.29,0,0,1-.09.16c.21.59.4,1.18.58,1.78l.16-.18c.15.57.28,1.15.41,1.73a7.17,7.17,0,0,0,.72-.74c-.53-1.17-1.07-2.25-1.61-3.21A4.28,4.28,0,0,1,100.33,63.67Z"/><path class="cls-1" d="M10.24,62.3c-.6,0-1.2,0-1.78,0H8.21A5.13,5.13,0,0,1,6.74,62l-.59.86,2.5,1.67C9.18,63.78,9.71,63,10.24,62.3Z"/><path class="cls-1" d="M98.35,65.58c.42.82.85,1.73,1.28,2.72a6.35,6.35,0,0,0,1.31-.77c-.21-.48-.42-1-.64-1.41l.29-.26.23-.25c-.18-.6-.37-1.19-.58-1.78A3.88,3.88,0,0,1,98.35,65.58Z"/><path class="cls-1" d="M31.56,67.74a3.57,3.57,0,0,0-1.2-.21,3.4,3.4,0,0,0-1.26.24,12.26,12.26,0,0,0-1.74.86c.67.22,1.34.43,2,.66l.29-.12.14,0a2,2,0,0,1,1.28,0l.5.18.92.34.54.22c.68.28,1.28.56,1.83.84l.69.37.27.15c.39.23.74.47,1.07.71a8.92,8.92,0,0,1,.73.59c1.05.46,2.07.94,3.07,1.42C39.25,71.52,36.77,69.56,31.56,67.74Z"/><path class="cls-1" d="M82.32,61.18a19.46,19.46,0,0,0-9.1-.58,1.09,1.09,0,0,0-.78.65,25.49,25.49,0,0,1,4.63-.88.52.52,0,0,1,.36.07A8.57,8.57,0,0,1,80,63.15a17,17,0,0,1,4,1.4A20.76,20.76,0,0,0,82.32,61.18Z"/><path class="cls-1" d="M55.55,76l-.4.08a22.35,22.35,0,0,0-3,1.81,1.37,1.37,0,0,0-.6,1.18,10.68,10.68,0,0,0,2,.2,9.83,9.83,0,0,0,1.21-.08,20.34,20.34,0,0,1,5.73-2.41,10.73,10.73,0,0,0,2.46-2.89l0,0A22.88,22.88,0,0,0,57.83,75,7.71,7.71,0,0,1,55.55,76Z"/><path class="cls-1" d="M5.1,64.43l1.05-1.54-.22-.15L4.77,64.47l.24.12Z"/><path class="cls-1" d="M8.47,65.25c.42,0,.84,0,1.27,0l-1.09-.73-.48.69h.3Z"/><path class="cls-1" d="M6.15,62.89,5.1,64.43,5,64.59a8.09,8.09,0,0,0,3.16.66l.48-.69Z"/><path class="cls-1" d="M46.74,59.22a10.9,10.9,0,0,1-3.12-2.46,1.24,1.24,0,0,0-.38.6,1.26,1.26,0,0,0,.87,1.53,20,20,0,0,1,8.59,5.72,1.25,1.25,0,0,0,1.77-1.77A22.21,22.21,0,0,0,52,60.47h-.16A11,11,0,0,1,46.74,59.22Z"/><path class="cls-1" d="M103.56,61.07l.35-.14-1.08-2.79-.25.09c.22.55.44,1.1.66,1.67A7,7,0,0,1,103.56,61.07Z"/><path class="cls-1" d="M98.66,59.94q.28.6.54,1.2.42.59.84,1.29l.62-.24a3.39,3.39,0,0,0-.2-1.17c-.23-.58-.45-1.14-.68-1.7l-1,.37Z"/><path class="cls-1" d="M99.2,61.14q-.26-.6-.54-1.2c0,.1-.12.18-.17.28C98.72,60.49,99,60.81,99.2,61.14Z"/><path class="cls-1" d="M94.16,61.49l-6.33,2.44.25.17a1.29,1.29,0,0,1,.45,1.71,1.26,1.26,0,0,1-1.71.45A17.5,17.5,0,0,0,85,65l-.58.23a21.09,21.09,0,0,0,1.3,2.48,1.86,1.86,0,0,1,.11.19l11.35-4.39Z"/><path class="cls-1" d="M100,62.43q-.42-.7-.84-1.29c.2.46.4.92.58,1.39Z"/><path class="cls-1" d="M98.82,59.69l-.24.09a1.19,1.19,0,0,1,.08.16Z"/><path class="cls-1" d="M99.12,61.27l-1.43,2.07,2.09-.81c-.18-.47-.38-.93-.58-1.39s-.48-.65-.71-.92c.05-.1.12-.18.17-.28a1.19,1.19,0,0,0-.08-.16l-1,.4Z"/><path class="cls-1" d="M86.82,66.26a1.26,1.26,0,0,0,1.71-.45,1.29,1.29,0,0,0-.45-1.71l-.25-.17L85,65A17.5,17.5,0,0,1,86.82,66.26Z"/><path class="cls-1" d="M97.14,63.55l0,0a9.65,9.65,0,0,0-1.5-1.91l-.58-.5-1,.37Z"/><path class="cls-1" d="M97.54,60.18l-2.43.94.58.5a9.65,9.65,0,0,1,1.5,1.91l.5-.19,1.43-2.07Z"/><path class="cls-1" d="M100.46,61a3.39,3.39,0,0,1,.2,1.17l2.9-1.12a7,7,0,0,0-.32-1.17c-.22-.57-.44-1.12-.66-1.67l-2.8,1.09C100,59.88,100.23,60.44,100.46,61Z"/><path class="cls-1" d="M84.38,65.27l-.12,0,1.08,2.8.45-.17a1.86,1.86,0,0,0-.11-.19A21.09,21.09,0,0,1,84.38,65.27Z"/><path class="cls-1" d="M42.56,116.88a42.23,42.23,0,0,0,12.91,2.47A46.61,46.61,0,0,1,42.56,116.88Z"/><path class="cls-1" d="M60.5,92.46c8.54-2.19,18.82-3.71,28.15-3.13a6.56,6.56,0,0,1-.15-1.13,2.42,2.42,0,0,1,0-.38,94.59,94.59,0,0,0-27.62,3,13.51,13.51,0,0,0-.4,1.64Z"/><path class="cls-1" d="M36,72.39c-.19-.22-.5-.16-1.11,0a10.74,10.74,0,0,1,1.27.83A1.06,1.06,0,0,0,36,72.39Z"/><path class="cls-1" d="M14.7,78.37A13.36,13.36,0,0,0,18.28,80l.52.09a2.34,2.34,0,0,0,2.81-1c.23-.26.54-.63,1.06-1.16a25.33,25.33,0,0,0,2.56-3.09c1.41-1.89,2.51-3.38,5-4.35a.62.62,0,0,1,.38,0l.66.25c-.12-.82-.48-.94-1.54-1.16l-.25-.06-.1-.24,0,0c-4,1.72-4.88,4.8-7.71,7.63-2.07,2.08-1.12,2-3.07,1.61a16.35,16.35,0,0,1-3.86-1.94c0,.15,0,.3,0,.46C14.67,77.5,14.69,77.94,14.7,78.37Z"/><path class="cls-1" d="M32.77,71a5.26,5.26,0,0,0,1,.68,2,2,0,0,0,.76-.16l.31-.09-.23-.1a2.06,2.06,0,0,1-1.6-.37,1.39,1.39,0,0,1-.28-.37l-.6-.23.06.22Z"/><path class="cls-1" d="M32.75,70.54a2.34,2.34,0,0,1-.26-.86l-.92-.34a1.86,1.86,0,0,1,.58,1Z"/><path class="cls-1" d="M34.63,71.28l.23.1a2.56,2.56,0,0,1,1-.12l-.27-.15-.4.1A4.08,4.08,0,0,1,34.63,71.28Z"/><path class="cls-1" d="M34.85,78.38c-.66,1.71-.71,4.05.75,5.15.18.14.37.27.56.39A3.32,3.32,0,0,1,37.87,86,8.47,8.47,0,0,1,38,87.33,4.68,4.68,0,0,0,38.38,89a5.53,5.53,0,0,0,2.07,2,11.14,11.14,0,0,1,1.61,1.26c1.69,1.69,1.68,3.81,1.68,6v.42a14.25,14.25,0,0,0,.66,3.86,22.61,22.61,0,0,1,.58,2.58c.21,1.46.57,2.87.91,4.25.2.79.4,1.57.57,2.38.31,1.41,1.4,3.34,2.87,3.49a3.25,3.25,0,0,0-.27-.52,3,3,0,0,1-.46-1.14,5.69,5.69,0,0,1,0-1.09,4.45,4.45,0,0,0,0-1.1,4.43,4.43,0,0,1,.83-4.11,8.93,8.93,0,0,1,.66-.72,8,8,0,0,0,.56-.6,1.33,1.33,0,0,0,.25-.38,2,2,0,0,1-.23-.92c0-.81.12-1.3.92-1.36a1.05,1.05,0,0,0,.43-.11,3.27,3.27,0,0,0,.68-.67c.11-.13.21-.25.3-.34s.43-.43.67-.65A9.21,9.21,0,0,0,55.05,100a4.42,4.42,0,0,0,.47-1.37,5.46,5.46,0,0,1,.6-1.71,3.56,3.56,0,0,1,1.73-1.38,5.35,5.35,0,0,0,.93-.52c.65-.49.65-.93.66-1.67,0-.2,0-.42,0-.64-1.48.39-2.92.81-4.28,1.24a11.35,11.35,0,0,1-3.35.51,11,11,0,0,1-5.09-1.25,10.73,10.73,0,0,1-5.29-6.32c-.7-2.26-1.15-4.18-1.55-5.87-.77-3.26-1.26-5.36-2.93-7a15.89,15.89,0,0,1-1.47,3.16A13.5,13.5,0,0,0,34.85,78.38Z"/><path class="cls-1" d="M37,74c1.67,1.68,2.16,3.78,2.93,7,.4,1.69.85,3.61,1.55,5.87a10.73,10.73,0,0,0,5.29,6.32,11,11,0,0,0,5.09,1.25A11.35,11.35,0,0,0,55.18,94c1.36-.43,2.8-.85,4.28-1.24,0-.16,0-.31.06-.47.07-.39.16-.79.26-1.18-1.73.45-3.42.94-5.05,1.45a9.38,9.38,0,0,1-11.84-6.07c-2.21-7.08-1.92-10.94-5.27-13.9L37,72.28A3,3,0,0,1,37,74Z"/><path class="cls-1" d="M37,72.28l.61.28a8.92,8.92,0,0,0-.73-.59C36.94,72.07,37,72.18,37,72.28Z"/><path class="cls-1" d="M89.88,91.58c0,.29-.07.6-.1.91a16.86,16.86,0,0,1-.4,2.62,7.77,7.77,0,0,1-.74,1.72A8.73,8.73,0,0,0,88,98.31a3.26,3.26,0,0,0,.43,2.87c.42.49.72.42,1.78-.38a10.77,10.77,0,0,0,2.67-3.63c.32-.59.66-1.2,1-1.77l.64-1a31.83,31.83,0,0,0,2.33-4l-.22,0a47.69,47.69,0,0,0-6.94-1v0A6.05,6.05,0,0,1,89.88,91.58Z"/><path class="cls-1" d="M89.69,89.41a47.69,47.69,0,0,1,6.94,1l.22,0a5.12,5.12,0,0,0,.25-.53c.13-.29.28-.58.42-.87L97,89a48.56,48.56,0,0,0-7.45-1.1,2.64,2.64,0,0,0,0,.29A6.52,6.52,0,0,0,89.69,89.41Z"/><path class="cls-1" d="M79.53,114.08A43.41,43.41,0,0,1,19.71,99.16a40.43,40.43,0,0,1-6.54-21.72L12.49,77v0A44.48,44.48,0,0,0,93,103.16,44.39,44.39,0,0,1,79.53,114.08Z"/><path class="cls-1" d="M13.68,77.77l-.51-.33a40.43,40.43,0,0,0,6.54,21.72A43,43,0,0,1,13.68,77.77Z"/><path class="cls-1" d="M98.13,90.62a43.37,43.37,0,0,1-18.6,23.46A44.39,44.39,0,0,0,93,103.16a44.66,44.66,0,0,0,6.38-12.58A7.47,7.47,0,0,1,98.13,90.62Z"/><path class="cls-1" d="M13.17,77.44c0-.11,0-.23,0-.35,0-.47,0-.93,0-1.4l-.65-.41c0,.58,0,1.16,0,1.75Z"/><path class="cls-1" d="M13.17,77.44l.51.33c0-.24,0-.47,0-.7s0-.71,0-1.06l-.5-.32c0,.47,0,.93,0,1.4C13.16,77.21,13.16,77.33,13.17,77.44Z"/><path class="cls-1" d="M99.38,90.58q.25-.8.48-1.59a6.57,6.57,0,0,1-1.25.15c-.15.5-.32,1-.48,1.48A7.47,7.47,0,0,0,99.38,90.58Z"/><path class="cls-1" d="M98,95.65A45,45,0,0,1,12,77.07c0-.12,0-.24,0-.35l-.49-.32c0,.22,0,.44,0,.67a45.5,45.5,0,0,0,89,13.31l-.29.06A42.08,42.08,0,0,1,98,95.65Z"/><path class="cls-1" d="M98,95.65a42.08,42.08,0,0,0,2.23-5.21l-.27.06A46.27,46.27,0,0,1,98,95.65Z"/><path class="cls-1" d="M100.77,88.72c-.17.58-.36,1.15-.56,1.72l.29-.06c.18-.58.34-1.16.5-1.74Z"/><path class="cls-1" d="M12.05,75l-.49-.32c0,.58,0,1.17-.05,1.75l.49.32C12,76.13,12,75.55,12.05,75Z"/><path class="cls-1" d="M99.94,90.5l.27-.06c.2-.57.39-1.14.56-1.72l-.35.13Q100.2,89.68,99.94,90.5Z"/><path class="cls-1" d="M71.45,117.4a47,47,0,0,1-13.63,2c-.78,0-1.57,0-2.35-.06a42.23,42.23,0,0,1-12.91-2.47,45.3,45.3,0,0,1-14.45-8.2,42.94,42.94,0,0,0,43.34,8.72Z"/><path class="cls-1" d="M27.06,107A42,42,0,0,1,14.7,78.37l-.51-.3a42.52,42.52,0,0,0,12.52,29.28c.46.45.92.89,1.4,1.33a45.3,45.3,0,0,0,14.45,8.2A42.28,42.28,0,0,1,27.06,107Z"/><path class="cls-1" d="M88.89,91.46c0,.29-.07.61-.1.93a16.47,16.47,0,0,1-.38,2.46,7.9,7.9,0,0,1-.65,1.52A9.21,9.21,0,0,0,87,98a4.26,4.26,0,0,0,.63,3.8c1.11,1.31,2.33.38,3.14-.23a11.71,11.71,0,0,0,2.95-3.95c.33-.6.64-1.17,1-1.7l.61-.93A42.39,42.39,0,0,1,57,119.39c-.51,0-1,0-1.52,0,.78,0,1.57.06,2.35.06a47,47,0,0,0,13.63-2A42.83,42.83,0,0,0,97.61,90.6l-.25,0a40.93,40.93,0,0,1-3.06,5.12c-1.19,1.84-2,4.16-3.81,5.52-.91.69-1.68,1.22-2.46.3a3.72,3.72,0,0,1-.53-3.33c.33-1.12,1.1-2.09,1.4-3.19a26.91,26.91,0,0,0,.48-3.46,6.09,6.09,0,0,0-.22-2.16l-.51,0c0,.11,0,.22.07.33A5.11,5.11,0,0,1,88.89,91.46Z"/><path class="cls-1" d="M14.19,78.07l.51.3c0-.43,0-.87,0-1.3,0-.16,0-.31,0-.46-.17-.09-.33-.2-.5-.3,0,.25,0,.5,0,.76S14.18,77.73,14.19,78.07Z"/><path class="cls-1" d="M88.65,89.33l.51,0A6.34,6.34,0,0,1,89,88.19a1.9,1.9,0,0,1,0-.34l-.49,0a2.42,2.42,0,0,0,0,.38A6.56,6.56,0,0,0,88.65,89.33Z"/><path class="cls-1" d="M97.36,90.56l.25,0c.16-.49.33-1,.48-1.47h0c-.17.34-.34.67-.48,1Z"/><path class="cls-1" d="M31.28,71.14l.23.13a6.9,6.9,0,0,1,.65.47,4.79,4.79,0,0,0,1.37.85,2.53,2.53,0,0,0,1.32-.16h0l-.63-.35a1.2,1.2,0,0,1-.56,0,5.45,5.45,0,0,1-1.35-.88c-.34-.14-.69-.28-1.07-.41,0,0,0,0,0,.07Z"/><path class="cls-1" d="M59.08,95.44c-.93.69-1.87.7-2.53,1.76s-.51,2.19-1.07,3.09a18,18,0,0,1-2.16,2.29,5.83,5.83,0,0,1-1.11,1.11c-.74.38-1.11-.23-1.08,1,0,1,.58.72-.13,1.62-.37.47-.85.85-1.21,1.31a3.92,3.92,0,0,0-.73,3.72c.14.76-.06,1.5,0,2.22s.93,1.4.78,2.19c-2.09.34-3.53-2.19-3.9-3.86-.48-2.22-1.15-4.35-1.49-6.65s-1.24-4.09-1.24-6.52.11-4.46-1.53-6.1c-1.25-1.26-3-1.8-3.78-3.44-.49-1-.29-2-.55-3.08s-1.21-1.52-2.09-2.18c-1.7-1.29-1.6-3.93-.9-5.73.34-.88,1.81-3,2.16-4.59-.13-.12-.28-.23-.43-.35a12,12,0,0,1-1.5,3.41,12.9,12.9,0,0,0-.7,1.35c-.79,2-.79,4.89,1.07,6.31l.62.42c.64.43,1.11.74,1.28,1.47a7,7,0,0,1,.16,1.18,5,5,0,0,0,.43,2,6.28,6.28,0,0,0,2.41,2.44A9.54,9.54,0,0,1,41.35,93c1.4,1.4,1.39,3.22,1.39,5.33v.42a15.36,15.36,0,0,0,.69,4.12,21,21,0,0,1,.56,2.47,44.37,44.37,0,0,0,.93,4.34c.2.78.39,1.56.57,2.35.43,2,2.11,4.63,4.46,4.25l.35-.06.06-.35a2.28,2.28,0,0,0-.43-1.58,2.22,2.22,0,0,1-.34-.77,4.6,4.6,0,0,1,0-.91,5.46,5.46,0,0,0,0-1.33,3.43,3.43,0,0,1,.64-3.32,6.64,6.64,0,0,1,.57-.62,8.17,8.17,0,0,0,.63-.69c.49-.63.57-.93.36-1.42a1.28,1.28,0,0,1-.12-.53,2.93,2.93,0,0,1,0-.34,1.89,1.89,0,0,0,.8-.21,3.51,3.51,0,0,0,1-.91l.26-.3.64-.62a10.28,10.28,0,0,0,1.58-1.74,5.19,5.19,0,0,0,.59-1.68A4.78,4.78,0,0,1,57,97.47a2.6,2.6,0,0,1,1.3-1,5.82,5.82,0,0,0,1.11-.63,2.66,2.66,0,0,0,1.06-2.46,5.76,5.76,0,0,1,.06-.92l-.52.13C59.85,93.71,60.2,94.6,59.08,95.44Z"/><path class="cls-1" d="M34.22,72.08l.63.35c.61-.2.92-.26,1.11,0a1.06,1.06,0,0,1,.16.87c.15.12.3.23.43.35a1.72,1.72,0,0,0-.21-1.55.91.91,0,0,0-.16-.13l-.4-.17A5.17,5.17,0,0,0,34.22,72.08Z"/><path class="cls-1" d="M29.45,69.6l.25.06c1.06.22,1.42.34,1.54,1.16.38.13.73.27,1.07.41a5.17,5.17,0,0,0-.56-.4,2.24,2.24,0,0,0-.21-.75l-2.18-.79,0,0,0,0Z"/><path class="cls-1" d="M60,92.59l.52-.13v0a13.51,13.51,0,0,1,.4-1.64l-.56.14A13,13,0,0,0,60,92.35,2,2,0,0,0,60,92.59Z"/><path class="cls-1" d="M35.78,71.76l.4.17A.93.93,0,0,0,35.78,71.76Z"/><path class="cls-1" d="M29.81,69.17l0,0-.14,0-.29.12,2.18.79C31.23,69.49,30.64,69.34,29.81,69.17Z"/><path class="cls-1" d="M34.86,70.74c-.55-.28-1.15-.56-1.83-.84C33.2,70.63,33.71,70.92,34.86,70.74Z"/><path class="cls-1" d="M101.77,69.55c0,.14.11.26.16.39-.15-.93-.33-1.86-.54-2.78l-.12.1C101.46,68,101.63,68.78,101.77,69.55Z"/><path class="cls-1" d="M101,67.51l0,.16c.26.6.52,1.24.77,1.88-.14-.77-.31-1.53-.5-2.29Z"/><path class="cls-1" d="M100.82,65.61q.24.83.45,1.65l.12-.1c-.13-.58-.26-1.16-.41-1.73Z"/><path class="cls-1" d="M101,67.51l.3-.25q-.21-.83-.45-1.65l-.23.25C100.73,66.41,100.85,67,101,67.51Z"/><path class="cls-1" d="M57,121.56a44.55,44.55,0,0,1-44.5-44.49v0L12,76.72c0,.11,0,.23,0,.35A45,45,0,0,0,98,95.65a42.55,42.55,0,0,1-5,7.51A44.44,44.44,0,0,1,57,121.56Z"/><path class="cls-1" d="M99.38,90.58A44.66,44.66,0,0,1,93,103.16a42.55,42.55,0,0,0,5-7.51,46.27,46.27,0,0,0,2-5.15Z"/><path class="cls-1" d="M12.54,75.28,12.05,75c0,.58,0,1.16-.05,1.75l.49.31C12.49,76.44,12.51,75.86,12.54,75.28Z"/><path class="cls-1" d="M99.94,90.5q.25-.82.48-1.65l-.56.14q-.23.8-.48,1.59Z"/><path class="cls-1" d="M89.38,91.52A26.91,26.91,0,0,1,88.9,95c-.3,1.1-1.07,2.07-1.4,3.19A3.72,3.72,0,0,0,88,101.5c.78.92,1.55.39,2.46-.3,1.8-1.36,2.62-3.68,3.81-5.52a40.93,40.93,0,0,0,3.06-5.12c-.17,0-.34,0-.51-.09a31.83,31.83,0,0,1-2.33,4l-.64,1c-.36.57-.7,1.18-1,1.77a10.77,10.77,0,0,1-2.67,3.63c-1.06.8-1.36.87-1.78.38A3.26,3.26,0,0,1,88,98.31a8.73,8.73,0,0,1,.66-1.48,7.77,7.77,0,0,0,.74-1.72,16.86,16.86,0,0,0,.4-2.62c0-.31.06-.62.1-.91a6.05,6.05,0,0,0-.19-2.13v0l-.53,0A6.09,6.09,0,0,1,89.38,91.52Z"/><path class="cls-1" d="M96.85,90.47c.17,0,.34.06.51.09l.21-.43c.14-.34.31-.67.48-1l-.53-.05c-.14.29-.29.58-.42.87A5.12,5.12,0,0,1,96.85,90.47Z"/><path class="cls-1" d="M89.16,89.36l.53,0a6.52,6.52,0,0,1-.19-1.24,2.64,2.64,0,0,1,0-.29l-.51,0a1.9,1.9,0,0,0,0,.34A6.34,6.34,0,0,0,89.16,89.36Z"/><path class="cls-1" d="M34.63,71.28l-1.88-.74a1.39,1.39,0,0,0,.28.37A2.06,2.06,0,0,0,34.63,71.28Z"/><path class="cls-1" d="M34.63,71.28a4.08,4.08,0,0,0,.52-.07l.4-.1-.69-.37c-1.15.18-1.66-.11-1.83-.84l-.54-.22a2.34,2.34,0,0,0,.26.86Z"/><path class="cls-1" d="M34.39,78.2c-.7,1.8-.8,4.44.9,5.73.88.66,1.81,1,2.09,2.18s.06,2,.55,3.08c.77,1.64,2.53,2.18,3.78,3.44,1.64,1.64,1.53,3.77,1.53,6.1s.92,4.29,1.24,6.52,1,4.43,1.49,6.65c.37,1.67,1.81,4.2,3.9,3.86.15-.79-.68-1.41-.78-2.19s.11-1.46,0-2.22a3.92,3.92,0,0,1,.73-3.72c.36-.46.84-.84,1.21-1.31.71-.9.16-.63.13-1.62,0-1.24.34-.63,1.08-1a5.83,5.83,0,0,0,1.11-1.11,18,18,0,0,0,2.16-2.29c.56-.9.49-2.16,1.07-3.09s1.6-1.07,2.53-1.76c1.12-.84.77-1.73.9-2.85l-.52.14c0,.22,0,.44,0,.64,0,.74,0,1.18-.66,1.67a5.35,5.35,0,0,1-.93.52,3.56,3.56,0,0,0-1.73,1.38,5.46,5.46,0,0,0-.6,1.71,4.42,4.42,0,0,1-.47,1.37,9.21,9.21,0,0,1-1.42,1.56c-.24.22-.47.44-.67.65s-.19.21-.3.34a3.27,3.27,0,0,1-.68.67,1.05,1.05,0,0,1-.43.11c-.8.06-.94.55-.92,1.36a2,2,0,0,0,.23.92,1.33,1.33,0,0,1-.25.38,8,8,0,0,1-.56.6,8.93,8.93,0,0,0-.66.72,4.43,4.43,0,0,0-.83,4.11,4.45,4.45,0,0,1,0,1.1,5.69,5.69,0,0,0,0,1.09,3,3,0,0,0,.46,1.14,3.25,3.25,0,0,1,.27.52c-1.47-.15-2.56-2.08-2.87-3.49-.17-.81-.37-1.59-.57-2.38-.34-1.38-.7-2.79-.91-4.25a22.61,22.61,0,0,0-.58-2.58,14.25,14.25,0,0,1-.66-3.86v-.42c0-2.23,0-4.35-1.68-6A11.14,11.14,0,0,0,40.45,91a5.53,5.53,0,0,1-2.07-2A4.68,4.68,0,0,1,38,87.33,8.47,8.47,0,0,0,37.87,86a3.32,3.32,0,0,0-1.71-2.07c-.19-.12-.38-.25-.56-.39-1.46-1.1-1.41-3.44-.75-5.15a13.5,13.5,0,0,1,.65-1.22A15.89,15.89,0,0,0,37,74l-.42-.39C36.2,75.22,34.73,77.32,34.39,78.2Z"/><path class="cls-1" d="M34.22,72.08c-.56-.28-1.2-.57-1.91-.85a5.45,5.45,0,0,0,1.35.88A1.2,1.2,0,0,0,34.22,72.08Z"/><path class="cls-1" d="M35.78,71.76l-.92-.38-.31.09a2,2,0,0,1-.76.16,5.26,5.26,0,0,1-1-.68l-.56-.42-.06-.22-.61-.23a2.24,2.24,0,0,1,.21.75,5.17,5.17,0,0,1,.56.4c.71.28,1.35.57,1.91.85A5.17,5.17,0,0,1,35.78,71.76Z"/><path class="cls-1" d="M36.34,72.06a1.72,1.72,0,0,1,.21,1.55L37,74a3,3,0,0,0,0-1.72l-.83-.35A.91.91,0,0,1,36.34,72.06Z"/><path class="cls-1" d="M59.46,92.73l.52-.14a2,2,0,0,1,0-.24,13,13,0,0,1,.33-1.41l-.56.14c-.1.39-.19.79-.26,1.18C59.49,92.42,59.48,92.57,59.46,92.73Z"/><path class="cls-1" d="M34.86,71.38l.92.38a.93.93,0,0,1,.4.17l.83.35c0-.1-.07-.21-.12-.31-.33-.24-.68-.48-1.07-.71A2.56,2.56,0,0,0,34.86,71.38Z"/><path class="cls-1" d="M31.54,70.08l.61.23a1.86,1.86,0,0,0-.58-1l-.5-.18a2,2,0,0,0-1.28,0l0,0C30.64,69.34,31.23,69.49,31.54,70.08Z"/><path class="cls-1" d="M101,67.67l0-.16,0,0Z"/><path class="cls-1" d="M100.3,66.12c.22.45.43.93.64,1.41l0,0c-.12-.55-.24-1.1-.38-1.65Z"/><path class="cls-1" d="M57,119.89a42.52,42.52,0,0,1-28.88-11.21,43,43,0,0,1-8.4-9.52,43.37,43.37,0,0,0,59.82,14.92,45.55,45.55,0,0,1-8.08,3.32A42.76,42.76,0,0,1,57,119.89Z"/><path class="cls-1" d="M28.11,108.68c-.48-.44-.94-.88-1.4-1.33A42.52,42.52,0,0,1,14.19,78.07l-.51-.3a43,43,0,0,0,6,21.39A43,43,0,0,0,28.11,108.68Z"/><path class="cls-1" d="M71.45,117.4a45.55,45.55,0,0,0,8.08-3.32,43.37,43.37,0,0,0,18.6-23.46,4.43,4.43,0,0,1-.52,0,42.83,42.83,0,0,1-26.16,26.8Z"/><path class="cls-1" d="M98.13,90.62c.16-.49.33-1,.48-1.48a4.47,4.47,0,0,1-.52,0c-.15.49-.32,1-.48,1.47A4.43,4.43,0,0,0,98.13,90.62Z"/><path class="cls-1" d="M14.17,77.07c0-.26,0-.51,0-.76l-.49-.3c0,.35,0,.7,0,1.06s0,.46,0,.7l.51.3C14.18,77.73,14.17,77.4,14.17,77.07Z"/><path class="cls-1" d="M19.25,17.61a46.15,46.15,0,0,1,5.68-4.49,43.31,43.31,0,0,0,6.44-5.21,24.1,24.1,0,0,0,15.4,2.88A24,24,0,0,0,61,3.08c14.77,1,28.07,7.76,36.73,18.73-.27.5-.57,1-.88,1.42s-.71,1.09-1,1.71l3.35,2.32-1.71,2.47-.17-.12a55.85,55.85,0,0,1,6.38,17.81,5.22,5.22,0,0,1-1.56,4.75,5.15,5.15,0,0,1-1.61,1.07c.41.89.8,1.8,1.2,2.74a8.1,8.1,0,0,0,2.49-1.64,8.27,8.27,0,0,0,2.43-7.46c-1.52-8.26-5-17.07-8.08-20.67a15.31,15.31,0,0,1,.83-1.32,17.28,17.28,0,0,0,1.51-2.67l.34-.8-.53-.69C91.33,8.44,76.66.9,60.39,0l-.75,0-.48.58A21.1,21.1,0,0,1,46.32,7.83,21,21,0,0,1,31.91,4.72L30.8,4l-.86,1a34.67,34.67,0,0,1-6.75,5.66,47.28,47.28,0,0,0-6,4.8,88.94,88.94,0,0,0-11,13.41l2.5,1.67A85.59,85.59,0,0,1,19.25,17.61Z"/><path class="cls-1" d="M18.8,46.12a2.35,2.35,0,0,0,2.81-1c.23-.26.54-.63,1.06-1.15l.15-.16a1.19,1.19,0,0,1-1.14-.58,1.28,1.28,0,0,1,.45-1.72,19.63,19.63,0,0,1,3.53-1.21,9.88,9.88,0,0,1,4.54-3.78.62.62,0,0,1,.38,0,17.11,17.11,0,0,1,6.16,3.22c.93-.48,1.89-.92,2.86-1.33-1.54-1.77-3.94-3.29-8-4.72a3.57,3.57,0,0,0-1.2-.21,3.4,3.4,0,0,0-1.26.24c-3.26,1.29-4.79,3.36-6.28,5.36-.15.2-.3.41-.46.61l.11.08L20.8,42.3,20.4,42c-.49.5-.82.88-1,1.14l-.55-.11c-.81-.14-3.62-1.88-6-3.37-.6.67-1.25,1.45-1.93,2.33,3.55,2.28,6,3.76,7.36,4Z"/><path class="cls-1" d="M95.36,53.11,94.52,53c.82,1.12,1.59,2.29,2.3,3.49l.45.07c.15-.23.29-.46.42-.71C97,54.88,96.16,54,95.36,53.11Z"/><path class="cls-1" d="M8.86,37.12a3.89,3.89,0,0,1-1.71-2.44,3.49,3.49,0,0,1,0-1.51L4.57,31.43a6.42,6.42,0,0,0-.35,3.88,6.89,6.89,0,0,0,3,4.35l1.12.71C9,39.52,9.66,38.74,10.28,38Z"/><path class="cls-1" d="M42.82,46.35c-.1-.45-.21-.89-.31-1.31a24.3,24.3,0,0,1-3.18-.32c.19.7.37,1.46.57,2.31.06.27.13.57.2.85a25.26,25.26,0,0,0,3.13.17Z"/><path class="cls-1" d="M54.28,57.09a8,8,0,0,1-6.15-.53A7.67,7.67,0,0,1,44.32,52c-.16-.51-.31-1-.44-1.49a27.38,27.38,0,0,1-3.14-.11c.21.79.44,1.61.71,2.49a10.81,10.81,0,0,0,2.17,3.86,1.2,1.2,0,0,1,1.16-.28,22.86,22.86,0,0,1,7.21,4A11.31,11.31,0,0,0,55.18,60C64,57.19,75.79,54.9,86.62,55.23l1.21-1.76,2.94,2a46.85,46.85,0,0,1,5.86.93l.19,0c-.71-1.2-1.48-2.37-2.3-3.49C83.33,51.11,68.56,52.59,54.28,57.09Z"/><path class="cls-1" d="M38,41.38a21.76,21.76,0,0,0,3.58.6,11,11,0,0,0-2-3.53c-1,.41-1.93.85-2.86,1.33A7,7,0,0,1,38,41.38Z"/><path class="cls-1" d="M97.69,55.82c-.13.25-.27.48-.42.71a7.39,7.39,0,0,0,1.4.1c-.46-1.08-.93-2.13-1.4-3.13-.62-.15-1.26-.27-1.91-.39C96.16,54,97,54.88,97.69,55.82Z"/><path class="cls-1" d="M42.51,45A30.24,30.24,0,0,0,41.62,42a21.76,21.76,0,0,1-3.58-.6,12.65,12.65,0,0,1,1.29,3.34A24.3,24.3,0,0,0,42.51,45Z"/><path class="cls-1" d="M43.88,50.52c-.25-.87-.46-1.69-.65-2.47a25.26,25.26,0,0,1-3.13-.17c.19.79.4,1.63.64,2.53A27.38,27.38,0,0,0,43.88,50.52Z"/><path class="cls-1" d="M86.62,55.23c1.4,0,2.79.13,4.15.27l-2.94-2Z"/><path class="cls-1" d="M99.65,53.5c.33.41.67.81,1,1.23l.53.7-.34.8,0,.05a6.61,6.61,0,0,0,.85-.3c-.4-.94-.79-1.85-1.2-2.74A5.74,5.74,0,0,1,99.65,53.5Z"/><path class="cls-1" d="M10.92,42c.68-.88,1.33-1.66,1.93-2.33L11,38.49l-.7-.45c-.62.7-1.26,1.48-1.91,2.33l1,.64Z"/><path class="cls-1" d="M97.31,53.51h0c.47,1,.94,2,1.4,3.13a8,8,0,0,0,2.13-.35l0-.05.34-.8-.53-.7c-.32-.42-.66-.82-1-1.23A5.13,5.13,0,0,1,97.31,53.51Z"/><path class="cls-1" d="M25.66,40.33a19.63,19.63,0,0,0-3.53,1.21,1.28,1.28,0,0,0-.45,1.72,1.19,1.19,0,0,0,1.14.58,28.61,28.61,0,0,0,2.41-2.93Z"/><path class="cls-1" d="M43.62,56.76a10.9,10.9,0,0,0,3.12,2.46,11,11,0,0,0,5.09,1.26H52a22.86,22.86,0,0,0-7.21-4A1.2,1.2,0,0,0,43.62,56.76Z"/><path class="cls-1" d="M84,28.55l.61,1.18a18.53,18.53,0,0,0,1,1.7c.41.26.81.52,1.2.82a1.26,1.26,0,0,0,1.71-.45,1.29,1.29,0,0,0-.45-1.71,19.11,19.11,0,0,0-14.86-3.5A1.25,1.25,0,1,0,73.88,29a16.23,16.23,0,0,1,7.43.47c.48-.14,1-.28,1.45-.46Z"/><path class="cls-1" d="M84.61,29.73,84,28.55,82.76,29c-.48.18-1,.32-1.45.46a17.09,17.09,0,0,1,4.31,2A18.53,18.53,0,0,1,84.61,29.73Z"/><path class="cls-1" d="M30.47,13.65c11,5.28,25.27,3.32,33.4-6.13,1.05-1.22-.72-3-1.77-1.77-7.37,8.57-20.34,10.56-30.37,5.74C30.29,10.8,29,13,30.47,13.65Z"/><path class="cls-1" d="M57.68,43.7A23.59,23.59,0,0,0,61.87,40a22.42,22.42,0,0,0-9.76,3.9,1.28,1.28,0,0,0-.44,1.71,1.34,1.34,0,0,0,1.17.62l.67-.26A20.36,20.36,0,0,1,57.68,43.7Z"/><path class="cls-1" d="M63.87,41.53c-.24.28-.5.53-.75.79a1.25,1.25,0,0,0,1.12-1.21,1.19,1.19,0,0,0,0-.32A1.31,1.31,0,0,1,63.87,41.53Z"/><path class="cls-1" d="M57.68,43.7A19.36,19.36,0,0,1,63,42.36l.13,0c.25-.26.51-.51.75-.79a1.31,1.31,0,0,0,.32-.74,1.22,1.22,0,0,0-1.2-.93c-.38,0-.75.09-1.12.15A23.59,23.59,0,0,1,57.68,43.7Z"/><path class="cls-1" d="M53.51,46l-.67.26a1,1,0,0,0,.54-.17Z"/><path class="cls-1" d="M13.08,35.36c-.15-.5-.33-1-.52-1.47-.11-.31-.23-.62-.34-1L8.65,30.55,7.64,32a3.39,3.39,0,0,0-.48,1.15l4.76,3.18C12.32,36,12.71,35.64,13.08,35.36Z"/><path class="cls-1" d="M15,38.39,20.4,42c.05-.05.09-.1.15-.15a19.66,19.66,0,0,0,1.81-2.15l-4-2.7Z"/><path class="cls-1" d="M6.15,28.88l-.22-.15L4.26,31.22l.31.21a6.48,6.48,0,0,1,.53-1Z"/><path class="cls-1" d="M15.31,35l-3.09-2.07c.11.33.23.64.34,1,.19.49.37,1,.52,1.47-.37.28-.76.62-1.16,1l.48.33-.17-.43Z"/><path class="cls-1" d="M16.23,35.63l0,.13.2,1.07-1,.52a6.67,6.67,0,0,0-1,.73l.47.31L18.32,37Z"/><path class="cls-1" d="M15.5,37.35l1-.52-.2-1.07,0-.13L15.31,35l-3.08,1.24.17.43,2.09,1.4A6.67,6.67,0,0,1,15.5,37.35Z"/><path class="cls-1" d="M7.64,32l1-1.47-2.5-1.67L5.1,30.42a6.48,6.48,0,0,0-.53,1l2.59,1.74A3.39,3.39,0,0,1,7.64,32Z"/><path class="cls-1" d="M20.4,42l.4.27,1.67-2.49-.11-.08a19.66,19.66,0,0,1-1.81,2.15C20.49,41.93,20.45,42,20.4,42Z"/><path class="cls-1" d="M86.13,21.93l11.11,7.68a10,10,0,0,0-1.55-2l-.82-.72.43-1c.15-.35.31-.66.47-1l-7.94-5.48Z"/><path class="cls-1" d="M94.87,26.9l.82.72a10,10,0,0,1,1.55,2l.17.12,1.71-2.47-3.35-2.32c-.16.3-.32.61-.47,1Z"/></g></g></svg>